<svg xmlns="http://www.w3.org/2000/svg" width="1400" height="780" viewBox="0 0 1400 780">
<style>text{font-family:Arial,Helvetica,sans-serif;fill:#1f2933}.muted{fill:#52616d}</style>
<rect width="100%" height="100%" fill="#f8f6f0"/>
<text x="70" y="58" font-size="34" font-weight="700">Daily Average Load and Day-Ahead Price in Germany, 2025</text>
<text class="muted" x="70" y="92" font-size="22">SMARD quarter-hour data aggregated by local calendar day</text>
<rect x="120" y="135" width="1158" height="535" fill="none" stroke="#8d97a2" stroke-width="2"/>
<line x1="120" y1="670.00" x2="1278" y2="670.00" stroke="#d8d3c8" stroke-width="1"/>
<text class="muted" x="108" y="676.00" text-anchor="end" font-size="18">35</text>
<line x1="120" y1="593.57" x2="1278" y2="593.57" stroke="#d8d3c8" stroke-width="1"/>
<text class="muted" x="108" y="599.57" text-anchor="end" font-size="18">40</text>
<line x1="120" y1="517.14" x2="1278" y2="517.14" stroke="#d8d3c8" stroke-width="1"/>
<text class="muted" x="108" y="523.14" text-anchor="end" font-size="18">45</text>
<line x1="120" y1="440.71" x2="1278" y2="440.71" stroke="#d8d3c8" stroke-width="1"/>
<text class="muted" x="108" y="446.71" text-anchor="end" font-size="18">50</text>
<line x1="120" y1="364.29" x2="1278" y2="364.29" stroke="#d8d3c8" stroke-width="1"/>
<text class="muted" x="108" y="370.29" text-anchor="end" font-size="18">55</text>
<line x1="120" y1="287.86" x2="1278" y2="287.86" stroke="#d8d3c8" stroke-width="1"/>
<text class="muted" x="108" y="293.86" text-anchor="end" font-size="18">60</text>
<line x1="120" y1="211.43" x2="1278" y2="211.43" stroke="#d8d3c8" stroke-width="1"/>
<text class="muted" x="108" y="217.43" text-anchor="end" font-size="18">65</text>
<line x1="120" y1="135.00" x2="1278" y2="135.00" stroke="#d8d3c8" stroke-width="1"/>
<text class="muted" x="108" y="141.00" text-anchor="end" font-size="18">70</text>
<text class="muted" x="1290" y="676.00" font-size="18">-50</text>
<text class="muted" x="1290" y="586.83" font-size="18">0</text>
<text class="muted" x="1290" y="497.67" font-size="18">50</text>
<text class="muted" x="1290" y="408.50" font-size="18">100</text>
<text class="muted" x="1290" y="319.33" font-size="18">150</text>
<text class="muted" x="1290" y="230.17" font-size="18">200</text>
<text class="muted" x="1290" y="141.00" font-size="18">250</text>
<line x1="120.00" y1="670" x2="120.00" y2="677" stroke="#8d97a2"/>
<text class="muted" x="120.00" y="708" text-anchor="middle" font-size="17">Jan</text>
<line x1="218.62" y1="670" x2="218.62" y2="677" stroke="#8d97a2"/>
<text class="muted" x="218.62" y="708" text-anchor="middle" font-size="17">Feb</text>
<line x1="307.70" y1="670" x2="307.70" y2="677" stroke="#8d97a2"/>
<text class="muted" x="307.70" y="708" text-anchor="middle" font-size="17">Mar</text>
<line x1="406.32" y1="670" x2="406.32" y2="677" stroke="#8d97a2"/>
<text class="muted" x="406.32" y="708" text-anchor="middle" font-size="17">Apr</text>
<line x1="501.76" y1="670" x2="501.76" y2="677" stroke="#8d97a2"/>
<text class="muted" x="501.76" y="708" text-anchor="middle" font-size="17">May</text>
<line x1="600.38" y1="670" x2="600.38" y2="677" stroke="#8d97a2"/>
<text class="muted" x="600.38" y="708" text-anchor="middle" font-size="17">Jun</text>
<line x1="695.82" y1="670" x2="695.82" y2="677" stroke="#8d97a2"/>
<text class="muted" x="695.82" y="708" text-anchor="middle" font-size="17">Jul</text>
<line x1="794.44" y1="670" x2="794.44" y2="677" stroke="#8d97a2"/>
<text class="muted" x="794.44" y="708" text-anchor="middle" font-size="17">Aug</text>
<line x1="893.06" y1="670" x2="893.06" y2="677" stroke="#8d97a2"/>
<text class="muted" x="893.06" y="708" text-anchor="middle" font-size="17">Sep</text>
<line x1="988.50" y1="670" x2="988.50" y2="677" stroke="#8d97a2"/>
<text class="muted" x="988.50" y="708" text-anchor="middle" font-size="17">Oct</text>
<line x1="1087.12" y1="670" x2="1087.12" y2="677" stroke="#8d97a2"/>
<text class="muted" x="1087.12" y="708" text-anchor="middle" font-size="17">Nov</text>
<line x1="1182.56" y1="670" x2="1182.56" y2="677" stroke="#8d97a2"/>
<text class="muted" x="1182.56" y="708" text-anchor="middle" font-size="17">Dec</text>
<polyline points="120.00,453.14 123.18,373.20 126.36,334.50 129.54,399.59 132.73,424.43 135.91,347.35 139.09,262.87 142.27,224.95 145.45,251.31 148.63,226.84 151.81,348.77 154.99,397.00 158.18,222.00 161.36,174.82 164.54,233.20 167.72,220.92 170.90,221.52 174.08,361.13 177.26,406.99 180.45,237.77 183.63,229.48 186.81,243.96 189.99,232.99 193.17,257.97 196.35,381.84 199.53,444.62 202.71,259.63 205.90,259.98 209.08,254.99 212.26,258.21 215.44,276.49 218.62,403.45 221.80,430.62 224.98,263.87 228.16,226.11 231.35,214.10 234.53,241.49 237.71,231.62 240.89,364.51 244.07,412.05 247.25,224.38 250.43,198.54 253.62,211.14 256.80,208.55 259.98,233.99 263.16,372.33 266.34,404.46 269.52,253.76 272.70,232.02 275.88,228.49 279.07,221.86 282.25,289.85 285.43,398.15 288.61,478.23 291.79,287.21 294.97,310.48 298.15,291.54 301.34,288.96 304.52,299.17 307.70,412.51 310.88,451.70 314.06,309.68 317.24,282.82 320.42,283.16 323.60,314.58 326.79,358.35 329.97,474.49 333.15,504.52 336.33,348.98 339.51,319.06 342.69,301.77 345.87,293.30 349.05,302.70 352.24,439.13 355.42,470.59 358.60,312.33 361.78,311.88 364.96,330.53 368.14,347.30 371.32,346.81 374.51,449.93 377.69,487.83 380.87,365.13 384.05,320.64 387.23,313.86 390.41,338.25 393.59,372.13 396.77,487.42 399.96,488.25 403.14,350.36 406.32,349.70 409.50,366.16 412.68,378.02 415.86,397.99 419.04,502.63 422.23,534.22 425.41,381.06 428.59,376.34 431.77,359.84 434.95,349.01 438.13,365.63 441.31,514.27 444.49,521.89 447.68,397.27 450.86,356.36 454.04,374.32 457.22,358.96 460.40,517.71 463.58,544.76 466.76,599.81 469.95,579.39 473.13,422.38 476.31,386.70 479.49,357.66 482.67,380.31 485.85,520.02 489.03,569.76 492.21,420.55 495.40,400.27 498.58,420.77 501.76,578.92 504.94,492.31 508.12,536.75 511.30,546.93 514.48,404.84 517.66,393.11 520.85,391.67 524.03,400.13 527.21,416.69 530.39,539.74 533.57,591.26 536.75,430.72 539.93,411.05 543.12,400.84 546.30,400.67 549.48,410.70 552.66,517.83 555.84,561.33 559.02,429.87 562.20,399.59 565.38,379.64 568.57,373.17 571.75,399.96 574.93,524.32 578.11,535.95 581.29,414.48 584.47,392.63 587.65,390.47 590.84,547.14 594.02,489.60 597.20,555.51 600.38,573.49 603.56,402.92 606.74,401.09 609.92,371.12 613.10,394.61 616.29,394.26 619.47,537.99 622.65,588.38 625.83,582.63 629.01,430.33 632.19,411.20 635.37,420.76 638.55,422.13 641.74,517.23 644.92,558.84 648.10,405.04 651.28,405.48 654.46,405.90 657.64,493.70 660.82,486.44 664.01,552.72 667.19,575.71 670.37,382.50 673.55,382.42 676.73,378.83 679.91,371.07 683.09,377.48 686.27,508.72 689.46,542.39 692.64,405.65 695.82,372.56 699.00,354.88 702.18,353.15 705.36,399.93 708.54,513.87 711.73,549.33 714.91,394.84 718.09,394.47 721.27,404.80 724.45,416.26 727.63,407.56 730.81,519.58 733.99,568.88 737.18,426.37 740.36,421.51 743.54,404.04 746.72,412.53 749.90,447.12 753.08,545.12 756.26,576.47 759.45,410.84 762.63,411.16 765.81,406.04 768.99,412.34 772.17,428.52 775.35,541.58 778.53,585.67 781.71,435.25 784.90,409.72 788.08,419.23 791.26,423.11 794.44,448.34 797.62,555.12 800.80,587.70 803.98,449.46 807.16,423.98 810.35,435.01 813.53,446.32 816.71,454.95 819.89,560.00 823.07,598.31 826.25,477.34 829.43,445.13 832.62,419.47 835.80,402.47 838.98,430.82 842.16,519.74 845.34,591.81 848.52,467.27 851.70,438.81 854.88,425.19 858.07,420.10 861.25,428.90 864.43,535.16 867.61,588.94 870.79,453.32 873.97,438.73 877.15,413.04 880.34,397.86 883.52,433.98 886.70,550.60 889.88,587.64 893.06,420.23 896.24,409.74 899.42,390.61 902.60,392.25 905.79,418.02 908.97,557.46 912.15,595.07 915.33,415.59 918.51,388.48 921.69,387.84 924.87,398.05 928.05,408.96 931.24,527.56 934.42,577.81 937.60,396.49 940.78,373.74 943.96,376.32 947.14,375.51 950.32,400.71 953.51,529.69 956.69,542.11 959.87,391.33 963.05,391.24 966.23,369.88 969.41,333.87 972.59,345.55 975.77,492.69 978.96,547.08 982.14,391.63 985.32,375.46 988.50,385.10 991.68,390.51 994.86,506.74 998.04,460.20 1001.23,485.34 1004.41,334.04 1007.59,351.33 1010.77,354.97 1013.95,335.58 1017.13,323.14 1020.31,453.42 1023.49,514.38 1026.68,368.95 1029.86,353.29 1033.04,340.15 1036.22,324.49 1039.40,334.88 1042.58,468.81 1045.76,501.29 1048.95,316.35 1052.13,307.67 1055.31,329.15 1058.49,310.99 1061.67,309.49 1064.85,413.37 1068.03,458.95 1071.21,293.25 1074.40,284.02 1077.58,302.51 1080.76,314.43 1083.94,380.24 1087.12,469.67 1090.30,497.13 1093.48,324.70 1096.66,307.43 1099.85,309.44 1103.03,305.61 1106.21,306.92 1109.39,428.35 1112.57,477.23 1115.75,325.52 1118.93,300.76 1122.12,290.46 1125.30,278.59 1128.48,319.09 1131.66,419.72 1134.84,472.06 1138.02,268.40 1141.20,233.38 1144.38,243.52 1147.57,237.15 1150.75,251.98 1153.93,346.93 1157.11,367.05 1160.29,233.73 1163.47,252.52 1166.65,238.92 1169.84,202.86 1173.02,231.51 1176.20,385.16 1179.38,411.56 1182.56,237.37 1185.74,206.46 1188.92,227.28 1192.10,220.61 1195.29,246.39 1198.47,364.81 1201.65,446.74 1204.83,261.21 1208.01,269.77 1211.19,245.47 1214.37,233.77 1217.55,290.14 1220.74,374.94 1223.92,393.70 1227.10,260.95 1230.28,267.31 1233.46,277.78 1236.64,283.15 1239.82,313.85 1243.01,442.90 1246.19,471.45 1249.37,358.22 1252.55,352.79 1255.73,427.07 1258.91,469.72 1262.09,469.02 1265.27,416.22 1268.46,441.14 1271.64,364.85 1274.82,370.48 1278.00,405.51" fill="none" stroke="#2563eb" stroke-width="3" stroke-linejoin="round"/>
<polyline points="120.00,579.13 123.18,415.14 126.36,420.44 129.54,365.42 132.73,452.01 135.91,535.96 139.09,476.88 142.27,394.43 145.45,364.10 148.63,380.34 151.81,399.13 154.99,384.55 158.18,350.42 161.36,354.68 164.54,184.61 167.72,316.71 170.90,319.90 174.08,341.60 177.26,351.28 180.45,168.25 183.63,280.42 186.81,292.92 189.99,395.48 193.17,440.13 196.35,403.70 199.53,399.89 202.71,473.52 205.90,391.13 209.08,387.99 212.26,346.27 215.44,329.35 218.62,339.29 221.80,336.29 224.98,305.29 228.16,326.86 231.35,328.01 234.53,313.18 237.71,364.73 240.89,386.79 244.07,351.82 247.25,363.56 250.43,366.81 253.62,305.62 256.80,273.88 259.98,261.36 263.16,342.48 266.34,344.27 269.52,307.24 272.70,344.62 275.88,383.19 279.07,411.51 282.25,418.91 285.43,455.42 288.61,418.47 291.79,418.46 294.97,331.60 298.15,338.84 301.34,356.08 304.52,351.19 307.70,360.33 310.88,418.34 314.06,391.00 317.24,388.65 320.42,440.75 323.60,420.66 326.79,395.38 329.97,419.11 333.15,443.14 336.33,379.57 339.51,357.39 342.69,358.15 345.87,357.67 349.05,364.63 352.24,415.13 355.42,452.38 358.60,404.09 361.78,420.08 364.96,394.68 368.14,387.70 371.32,449.72 374.51,554.15 377.69,482.81 380.87,349.21 384.05,381.49 387.23,376.58 390.41,404.34 393.59,423.29 396.77,430.12 399.96,560.00 403.14,394.65 406.32,412.81 409.50,470.95 412.68,442.63 415.86,420.50 419.04,483.06 422.23,512.56 425.41,409.40 428.59,404.74 431.77,417.55 434.95,428.32 438.13,465.57 441.31,464.19 444.49,510.92 447.68,405.79 450.86,455.93 454.04,421.09 457.22,405.20 460.40,424.08 463.58,457.93 466.76,464.45 469.95,434.61 473.13,379.95 476.31,385.60 479.49,408.21 482.67,422.96 485.85,478.48 489.03,524.77 492.21,445.75 495.40,450.29 498.58,447.16 501.76,500.64 504.94,468.86 508.12,482.61 511.30,521.02 514.48,424.96 517.66,418.62 520.85,404.41 524.03,396.83 527.21,436.18 530.39,487.56 533.57,546.22 536.75,456.69 539.93,439.05 543.12,457.67 546.30,462.71 549.48,449.93 552.66,474.71 555.84,468.60 559.02,410.46 562.20,418.29 565.38,453.60 568.57,471.67 571.75,433.58 574.93,477.22 578.11,538.54 581.29,450.80 584.47,470.54 587.65,430.70 590.84,480.45 594.02,494.90 597.20,455.09 600.38,510.25 603.56,425.62 606.74,452.99 609.92,432.62 613.10,437.89 616.29,494.10 619.47,474.34 622.65,540.46 625.83,521.43 629.01,484.31 632.19,453.14 635.37,475.12 638.55,487.93 641.74,501.70 644.92,470.54 648.10,436.21 651.28,429.88 654.46,438.48 657.64,480.93 660.82,425.59 664.01,451.34 667.19,506.89 670.37,511.75 673.55,496.63 676.73,437.90 679.91,417.90 683.09,436.05 686.27,487.18 689.46,484.32 692.64,398.18 695.82,334.08 699.00,395.57 702.18,426.64 705.36,438.85 708.54,484.79 711.73,449.78 714.91,402.55 718.09,420.31 721.27,417.13 724.45,419.60 727.63,424.11 730.81,451.98 733.99,449.77 737.18,405.23 740.36,418.86 743.54,410.08 746.72,415.68 749.90,400.83 753.08,455.75 756.26,453.36 759.45,402.09 762.63,441.05 765.81,441.29 768.99,397.96 772.17,407.09 775.35,418.27 778.53,439.18 781.71,413.06 784.90,443.60 788.08,445.38 791.26,428.32 794.44,414.64 797.62,461.09 800.80,505.49 803.98,467.67 807.16,516.54 810.35,470.37 813.53,452.80 816.71,445.01 819.89,471.30 823.07,497.37 826.25,430.18 829.43,429.33 832.62,402.80 835.80,393.47 838.98,449.55 842.16,472.17 845.34,466.61 848.52,417.60 851.70,433.91 854.88,418.54 858.07,415.55 861.25,449.43 864.43,459.79 867.61,468.39 870.79,421.96 873.97,402.88 877.15,394.26 880.34,374.16 883.52,412.98 886.70,455.64 889.88,478.07 893.06,399.89 896.24,363.11 899.42,463.72 902.60,424.59 905.79,402.65 908.97,446.29 912.15,505.70 915.33,360.48 918.51,326.79 921.69,356.22 924.87,452.11 928.05,484.30 931.24,472.13 934.42,452.93 937.60,565.09 940.78,546.02 943.96,446.48 947.14,463.61 950.32,408.78 953.51,476.14 956.69,523.45 959.87,406.97 963.05,396.99 966.23,439.61 969.41,434.94 972.59,411.49 975.77,415.34 978.96,425.36 982.14,347.99 985.32,338.00 988.50,372.95 991.68,397.69 994.86,461.78 998.04,581.35 1001.23,577.75 1004.41,427.15 1007.59,334.81 1010.77,371.16 1013.95,393.74 1017.13,408.90 1020.31,419.10 1023.49,421.78 1026.68,332.86 1029.86,302.39 1033.04,320.96 1036.22,402.50 1039.40,394.64 1042.58,410.10 1045.76,446.45 1048.95,434.13 1052.13,459.91 1055.31,357.79 1058.49,434.11 1061.67,523.19 1064.85,560.82 1068.03,569.21 1071.21,458.85 1074.40,461.93 1077.58,424.40 1080.76,457.05 1083.94,414.55 1087.12,495.89 1090.30,427.62 1093.48,441.21 1096.66,449.66 1099.85,414.22 1103.03,391.42 1106.21,383.23 1109.39,390.97 1112.57,404.27 1115.75,384.87 1118.93,408.05 1122.12,437.59 1125.30,456.27 1128.48,390.49 1131.66,419.08 1134.84,399.94 1138.02,411.93 1141.20,399.00 1144.38,397.98 1147.57,356.16 1150.75,319.61 1153.93,418.11 1157.11,453.46 1160.29,344.79 1163.47,187.58 1166.65,292.79 1169.84,418.23 1173.02,429.16 1176.20,419.99 1179.38,430.77 1182.56,414.21 1185.74,401.84 1188.92,286.93 1192.10,358.16 1195.29,343.14 1198.47,438.85 1201.65,437.47 1204.83,454.87 1208.01,417.53 1211.19,440.84 1214.37,412.39 1217.55,378.53 1220.74,409.78 1223.92,427.10 1227.10,424.97 1230.28,390.47 1233.46,391.09 1236.64,448.47 1239.82,455.87 1243.01,397.05 1246.19,417.54 1249.37,428.26 1252.55,447.56 1255.73,457.10 1258.91,456.44 1262.09,406.90 1265.27,417.76 1268.46,415.40 1271.64,412.58 1274.82,424.33 1278.00,425.12" fill="none" stroke="#d97706" stroke-width="3" stroke-linejoin="round"/>
<text x="120" y="113" font-size="20" font-weight="700" fill="#2563eb">Average load (GW)</text>
<text x="1278" y="113" text-anchor="end" font-size="20" font-weight="700" fill="#d97706">Day-ahead price (EUR/MWh)</text>
<line x1="140" y1="726" x2="200" y2="726" stroke="#2563eb" stroke-width="4"/>
<text x="212" y="732" font-size="20">Average load</text>
<line x1="395" y1="726" x2="455" y2="726" stroke="#d97706" stroke-width="4"/>
<text x="467" y="732" font-size="20">Day-ahead price</text>
<text class="muted" x="1330" y="748" text-anchor="end" font-size="17">Data: SMARD 410 and 4169</text>
</svg>